<mxfile host="app.diagrams.net" modified="2024-01-23T11:26:47.785Z" agent="Mozilla/5.0 (Windows NT 10.0; Win64; x64) AppleWebKit/537.36 (KHTML, like Gecko) Chrome/120.0.0.0 Safari/537.36" etag="XIN2HBW6ybDm-dv3_D1h" version="22.1.21" type="github">
  <diagram id="R2lEEEUBdFMjLlhIrx00" name="Page-1">
    <mxGraphModel dx="3294" dy="1678" grid="1" gridSize="10" guides="1" tooltips="1" connect="1" arrows="1" fold="1" page="1" pageScale="1" pageWidth="850" pageHeight="1100" math="0" shadow="0" extFonts="Permanent Marker^https://fonts.googleapis.com/css?family=Permanent+Marker">
      <root>
        <mxCell id="0" />
        <mxCell id="1" parent="0" />
        <mxCell id="OF-9GFd3i1jKcn4MAkDw-1" value="&lt;div style=&quot;color: rgb(255, 255, 255); background-color: rgb(39, 40, 34); font-family: Consolas, &amp;quot;Courier New&amp;quot;, monospace; font-weight: normal; font-size: 30px; line-height: 22px;&quot;&gt;&lt;div style=&quot;text-align: center; border-color: var(--border-color);&quot;&gt;&lt;span style=&quot;border-color: var(--border-color);&quot;&gt;&lt;br&gt;&lt;/span&gt;&lt;/div&gt;&lt;div style=&quot;text-align: center; border-color: var(--border-color);&quot;&gt;&lt;span style=&quot;border-color: var(--border-color);&quot;&gt;&lt;br&gt;&lt;/span&gt;&lt;/div&gt;&lt;div style=&quot;text-align: center; border-color: var(--border-color);&quot;&gt;&lt;span style=&quot;border-color: var(--border-color);&quot;&gt;MUDAPP&lt;/span&gt;&lt;/div&gt;&lt;div style=&quot;text-align: center; border-color: var(--border-color);&quot;&gt;&lt;span style=&quot;border-color: var(--border-color); color: rgb(225, 239, 255);&quot;&gt;&lt;br&gt;&lt;/span&gt;&lt;/div&gt;&lt;div style=&quot;text-align: center; border-color: var(--border-color);&quot;&gt;&lt;span style=&quot;border-color: var(--border-color); color: rgb(225, 239, 255);&quot;&gt;MODELO LOGICO&amp;nbsp;&lt;span style=&quot;white-space: pre;&quot;&gt;&#x9;&lt;span style=&quot;white-space: pre;&quot;&gt;&#x9;&lt;/span&gt;&lt;span style=&quot;white-space: pre;&quot;&gt;&#x9;&lt;/span&gt;&lt;/span&gt;&lt;span style=&quot;white-space: pre;&quot;&gt;&#x9;&lt;/span&gt;&lt;/span&gt;&lt;/div&gt;&lt;div style=&quot;border-color: var(--border-color);&quot;&gt;&lt;span style=&quot;border-color: var(--border-color); color: rgb(225, 239, 255);&quot;&gt;&lt;br&gt;&lt;/span&gt;&lt;/div&gt;&lt;div style=&quot;border-color: var(--border-color);&quot;&gt;&lt;span style=&quot;border-color: var(--border-color); color: rgb(225, 239, 255);&quot;&gt;&lt;br&gt;&lt;/span&gt;&lt;/div&gt;&lt;/div&gt;" style="text;whiteSpace=wrap;html=1;" vertex="1" parent="1">
          <mxGeometry x="490" y="80" width="670" height="160" as="geometry" />
        </mxCell>
        <mxCell id="OF-9GFd3i1jKcn4MAkDw-2" value="TRANSPORTISTA" style="whiteSpace=wrap;html=1;align=center;direction=south;" vertex="1" parent="1">
          <mxGeometry x="1370" y="880" width="150" height="40" as="geometry" />
        </mxCell>
        <mxCell id="OF-9GFd3i1jKcn4MAkDw-3" value="" style="endArrow=none;html=1;rounded=0;fontSize=12;startSize=8;endSize=8;entryX=1;entryY=0.5;entryDx=0;entryDy=0;exitX=0;exitY=0.5;exitDx=0;exitDy=0;edgeStyle=orthogonalEdgeStyle;" edge="1" parent="1" source="OF-9GFd3i1jKcn4MAkDw-7" target="OF-9GFd3i1jKcn4MAkDw-2">
          <mxGeometry width="50" height="50" relative="1" as="geometry">
            <mxPoint x="1345.7779310345077" y="2085.5172413792957" as="sourcePoint" />
            <mxPoint x="1481.6399999999996" y="2010" as="targetPoint" />
            <Array as="points">
              <mxPoint x="1445" y="1025" />
            </Array>
          </mxGeometry>
        </mxCell>
        <mxCell id="OF-9GFd3i1jKcn4MAkDw-4" value="" style="endArrow=none;html=1;rounded=0;fontSize=12;startSize=8;endSize=8;entryX=0;entryY=0.5;entryDx=0;entryDy=0;exitX=1;exitY=0.5;exitDx=0;exitDy=0;edgeStyle=orthogonalEdgeStyle;" edge="1" parent="1" source="OF-9GFd3i1jKcn4MAkDw-2">
          <mxGeometry width="50" height="50" relative="1" as="geometry">
            <mxPoint x="1481.6399999999996" y="2010" as="sourcePoint" />
            <mxPoint x="1510" y="985" as="targetPoint" />
            <Array as="points">
              <mxPoint x="1445" y="985" />
            </Array>
          </mxGeometry>
        </mxCell>
        <mxCell id="OF-9GFd3i1jKcn4MAkDw-5" value="Media de Valoraciones" style="ellipse;whiteSpace=wrap;html=1;align=center;" vertex="1" parent="1">
          <mxGeometry x="1510" y="1340" width="100" height="40" as="geometry" />
        </mxCell>
        <mxCell id="OF-9GFd3i1jKcn4MAkDw-6" value="" style="endArrow=none;html=1;rounded=0;fontSize=12;startSize=8;endSize=8;entryX=0;entryY=0.5;entryDx=0;entryDy=0;edgeStyle=orthogonalEdgeStyle;exitX=1;exitY=0.5;exitDx=0;exitDy=0;" edge="1" parent="1" source="OF-9GFd3i1jKcn4MAkDw-2" target="OF-9GFd3i1jKcn4MAkDw-5">
          <mxGeometry relative="1" as="geometry">
            <mxPoint x="1440" y="930.0000000000002" as="sourcePoint" />
            <mxPoint x="1505" y="1420" as="targetPoint" />
            <Array as="points">
              <mxPoint x="1445" y="1360" />
            </Array>
          </mxGeometry>
        </mxCell>
        <mxCell id="OF-9GFd3i1jKcn4MAkDw-7" value="FK-User_id" style="ellipse;whiteSpace=wrap;html=1;align=center;" vertex="1" parent="1">
          <mxGeometry x="1510" y="1010" width="100" height="30" as="geometry" />
        </mxCell>
        <mxCell id="OF-9GFd3i1jKcn4MAkDw-8" value="Metodo de Cobro" style="ellipse;whiteSpace=wrap;html=1;align=center;" vertex="1" parent="1">
          <mxGeometry x="1510" y="1170" width="100" height="35" as="geometry" />
        </mxCell>
        <mxCell id="OF-9GFd3i1jKcn4MAkDw-9" value="" style="endArrow=none;html=1;rounded=0;fontSize=12;startSize=8;endSize=8;exitX=0;exitY=0.5;exitDx=0;exitDy=0;entryX=1;entryY=0.5;entryDx=0;entryDy=0;edgeStyle=orthogonalEdgeStyle;" edge="1" parent="1" source="OF-9GFd3i1jKcn4MAkDw-8" target="OF-9GFd3i1jKcn4MAkDw-2">
          <mxGeometry width="50" height="50" relative="1" as="geometry">
            <mxPoint x="1295.78" y="2120" as="sourcePoint" />
            <mxPoint x="1485.78" y="2010" as="targetPoint" />
            <Array as="points">
              <mxPoint x="1510" y="1190" />
              <mxPoint x="1445" y="1190" />
            </Array>
          </mxGeometry>
        </mxCell>
        <mxCell id="OF-9GFd3i1jKcn4MAkDw-10" value="Zonas" style="ellipse;whiteSpace=wrap;html=1;align=center;" vertex="1" parent="1">
          <mxGeometry x="1510" y="1300" width="100" height="30" as="geometry" />
        </mxCell>
        <mxCell id="OF-9GFd3i1jKcn4MAkDw-11" value="Vehiculo" style="ellipse;whiteSpace=wrap;html=1;align=center;" vertex="1" parent="1">
          <mxGeometry x="1510" y="1220" width="100" height="30" as="geometry" />
        </mxCell>
        <mxCell id="OF-9GFd3i1jKcn4MAkDw-12" value="Tarifas" style="ellipse;whiteSpace=wrap;html=1;align=center;" vertex="1" parent="1">
          <mxGeometry x="1510" y="1260" width="100" height="30" as="geometry" />
        </mxCell>
        <mxCell id="OF-9GFd3i1jKcn4MAkDw-13" value="" style="endArrow=none;html=1;rounded=0;exitX=0;exitY=0.5;exitDx=0;exitDy=0;entryX=1;entryY=0.5;entryDx=0;entryDy=0;edgeStyle=orthogonalEdgeStyle;" edge="1" parent="1" source="OF-9GFd3i1jKcn4MAkDw-11" target="OF-9GFd3i1jKcn4MAkDw-2">
          <mxGeometry width="50" height="50" relative="1" as="geometry">
            <mxPoint x="1639.9200000000005" y="1724.8400000000001" as="sourcePoint" />
            <mxPoint x="1500.78" y="1985" as="targetPoint" />
            <Array as="points">
              <mxPoint x="1445" y="1235" />
            </Array>
          </mxGeometry>
        </mxCell>
        <mxCell id="OF-9GFd3i1jKcn4MAkDw-14" value="" style="endArrow=none;html=1;rounded=0;exitX=0;exitY=0.5;exitDx=0;exitDy=0;edgeStyle=orthogonalEdgeStyle;entryX=1;entryY=0.5;entryDx=0;entryDy=0;" edge="1" parent="1" source="OF-9GFd3i1jKcn4MAkDw-10" target="OF-9GFd3i1jKcn4MAkDw-2">
          <mxGeometry width="50" height="50" relative="1" as="geometry">
            <mxPoint x="1504.7" y="1364.2200000000003" as="sourcePoint" />
            <mxPoint x="1440" y="930.0000000000002" as="targetPoint" />
            <Array as="points">
              <mxPoint x="1445" y="1315" />
            </Array>
          </mxGeometry>
        </mxCell>
        <mxCell id="OF-9GFd3i1jKcn4MAkDw-15" value="" style="endArrow=none;html=1;rounded=0;exitX=0;exitY=0.5;exitDx=0;exitDy=0;edgeStyle=orthogonalEdgeStyle;entryX=1;entryY=0.5;entryDx=0;entryDy=0;" edge="1" parent="1" source="OF-9GFd3i1jKcn4MAkDw-12" target="OF-9GFd3i1jKcn4MAkDw-2">
          <mxGeometry width="50" height="50" relative="1" as="geometry">
            <mxPoint x="1905.7800000000002" y="1824.8400000000001" as="sourcePoint" />
            <mxPoint x="1380" y="1090" as="targetPoint" />
            <Array as="points">
              <mxPoint x="1445" y="1275" />
            </Array>
          </mxGeometry>
        </mxCell>
        <mxCell id="OF-9GFd3i1jKcn4MAkDw-16" value="" style="shape=table;startSize=0;container=1;collapsible=0;childLayout=tableLayout;" vertex="1" parent="1">
          <mxGeometry x="300" y="450" width="1070" height="280" as="geometry" />
        </mxCell>
        <mxCell id="OF-9GFd3i1jKcn4MAkDw-17" value="" style="shape=tableRow;horizontal=0;startSize=0;swimlaneHead=0;swimlaneBody=0;strokeColor=inherit;top=0;left=0;bottom=0;right=0;collapsible=0;dropTarget=0;fillColor=none;points=[[0,0.5],[1,0.5]];portConstraint=eastwest;" vertex="1" parent="OF-9GFd3i1jKcn4MAkDw-16">
          <mxGeometry width="1070" height="40" as="geometry" />
        </mxCell>
        <mxCell id="OF-9GFd3i1jKcn4MAkDw-18" value="" style="shape=partialRectangle;html=1;whiteSpace=wrap;connectable=0;strokeColor=inherit;overflow=hidden;fillColor=none;top=0;left=0;bottom=0;right=0;pointerEvents=1;" vertex="1" parent="OF-9GFd3i1jKcn4MAkDw-17">
          <mxGeometry width="210" height="40" as="geometry">
            <mxRectangle width="210" height="40" as="alternateBounds" />
          </mxGeometry>
        </mxCell>
        <mxCell id="OF-9GFd3i1jKcn4MAkDw-19" value="USUARIO" style="shape=partialRectangle;html=1;whiteSpace=wrap;connectable=0;strokeColor=inherit;overflow=hidden;fillColor=none;top=0;left=0;bottom=0;right=0;pointerEvents=1;" vertex="1" parent="OF-9GFd3i1jKcn4MAkDw-17">
          <mxGeometry x="210" width="180" height="40" as="geometry">
            <mxRectangle width="180" height="40" as="alternateBounds" />
          </mxGeometry>
        </mxCell>
        <mxCell id="OF-9GFd3i1jKcn4MAkDw-20" value="TRANSPORTISTA" style="shape=partialRectangle;html=1;whiteSpace=wrap;connectable=0;strokeColor=inherit;overflow=hidden;fillColor=none;top=0;left=0;bottom=0;right=0;pointerEvents=1;" vertex="1" parent="OF-9GFd3i1jKcn4MAkDw-17">
          <mxGeometry x="390" width="190" height="40" as="geometry">
            <mxRectangle width="190" height="40" as="alternateBounds" />
          </mxGeometry>
        </mxCell>
        <mxCell id="OF-9GFd3i1jKcn4MAkDw-21" value="ADMINISTRADOR" style="shape=partialRectangle;html=1;whiteSpace=wrap;connectable=0;strokeColor=inherit;overflow=hidden;fillColor=none;top=0;left=0;bottom=0;right=0;pointerEvents=1;" vertex="1" parent="OF-9GFd3i1jKcn4MAkDw-17">
          <mxGeometry x="580" width="190" height="40" as="geometry">
            <mxRectangle width="190" height="40" as="alternateBounds" />
          </mxGeometry>
        </mxCell>
        <mxCell id="OF-9GFd3i1jKcn4MAkDw-22" value="SERVICIO" style="shape=partialRectangle;html=1;whiteSpace=wrap;connectable=0;strokeColor=inherit;overflow=hidden;fillColor=none;top=0;left=0;bottom=0;right=0;pointerEvents=1;" vertex="1" parent="OF-9GFd3i1jKcn4MAkDw-17">
          <mxGeometry x="770" width="150" height="40" as="geometry">
            <mxRectangle width="150" height="40" as="alternateBounds" />
          </mxGeometry>
        </mxCell>
        <mxCell id="OF-9GFd3i1jKcn4MAkDw-23" value="VALORACION" style="shape=partialRectangle;html=1;whiteSpace=wrap;connectable=0;strokeColor=inherit;overflow=hidden;fillColor=none;top=0;left=0;bottom=0;right=0;pointerEvents=1;" vertex="1" parent="OF-9GFd3i1jKcn4MAkDw-17">
          <mxGeometry x="920" width="150" height="40" as="geometry">
            <mxRectangle width="150" height="40" as="alternateBounds" />
          </mxGeometry>
        </mxCell>
        <mxCell id="OF-9GFd3i1jKcn4MAkDw-24" value="" style="shape=tableRow;horizontal=0;startSize=0;swimlaneHead=0;swimlaneBody=0;strokeColor=inherit;top=0;left=0;bottom=0;right=0;collapsible=0;dropTarget=0;fillColor=none;points=[[0,0.5],[1,0.5]];portConstraint=eastwest;" vertex="1" parent="OF-9GFd3i1jKcn4MAkDw-16">
          <mxGeometry y="40" width="1070" height="40" as="geometry" />
        </mxCell>
        <mxCell id="OF-9GFd3i1jKcn4MAkDw-25" value="USUARIO" style="shape=partialRectangle;html=1;whiteSpace=wrap;connectable=0;strokeColor=inherit;overflow=hidden;fillColor=none;top=0;left=0;bottom=0;right=0;pointerEvents=1;" vertex="1" parent="OF-9GFd3i1jKcn4MAkDw-24">
          <mxGeometry width="210" height="40" as="geometry">
            <mxRectangle width="210" height="40" as="alternateBounds" />
          </mxGeometry>
        </mxCell>
        <mxCell id="OF-9GFd3i1jKcn4MAkDw-26" value="" style="shape=partialRectangle;html=1;whiteSpace=wrap;connectable=0;strokeColor=inherit;overflow=hidden;fillColor=none;top=0;left=0;bottom=0;right=0;pointerEvents=1;" vertex="1" parent="OF-9GFd3i1jKcn4MAkDw-24">
          <mxGeometry x="210" width="180" height="40" as="geometry">
            <mxRectangle width="180" height="40" as="alternateBounds" />
          </mxGeometry>
        </mxCell>
        <mxCell id="OF-9GFd3i1jKcn4MAkDw-27" value="registra" style="shape=partialRectangle;html=1;whiteSpace=wrap;connectable=0;strokeColor=inherit;overflow=hidden;fillColor=none;top=0;left=0;bottom=0;right=0;pointerEvents=1;" vertex="1" parent="OF-9GFd3i1jKcn4MAkDw-24">
          <mxGeometry x="390" width="190" height="40" as="geometry">
            <mxRectangle width="190" height="40" as="alternateBounds" />
          </mxGeometry>
        </mxCell>
        <mxCell id="OF-9GFd3i1jKcn4MAkDw-28" value="" style="shape=partialRectangle;html=1;whiteSpace=wrap;connectable=0;strokeColor=inherit;overflow=hidden;fillColor=none;top=0;left=0;bottom=0;right=0;pointerEvents=1;" vertex="1" parent="OF-9GFd3i1jKcn4MAkDw-24">
          <mxGeometry x="580" width="190" height="40" as="geometry">
            <mxRectangle width="190" height="40" as="alternateBounds" />
          </mxGeometry>
        </mxCell>
        <mxCell id="OF-9GFd3i1jKcn4MAkDw-29" value="" style="shape=partialRectangle;html=1;whiteSpace=wrap;connectable=0;strokeColor=inherit;overflow=hidden;fillColor=none;top=0;left=0;bottom=0;right=0;pointerEvents=1;" vertex="1" parent="OF-9GFd3i1jKcn4MAkDw-24">
          <mxGeometry x="770" width="150" height="40" as="geometry">
            <mxRectangle width="150" height="40" as="alternateBounds" />
          </mxGeometry>
        </mxCell>
        <mxCell id="OF-9GFd3i1jKcn4MAkDw-30" value="" style="shape=partialRectangle;html=1;whiteSpace=wrap;connectable=0;strokeColor=inherit;overflow=hidden;fillColor=none;top=0;left=0;bottom=0;right=0;pointerEvents=1;" vertex="1" parent="OF-9GFd3i1jKcn4MAkDw-24">
          <mxGeometry x="920" width="150" height="40" as="geometry">
            <mxRectangle width="150" height="40" as="alternateBounds" />
          </mxGeometry>
        </mxCell>
        <mxCell id="OF-9GFd3i1jKcn4MAkDw-31" value="" style="shape=tableRow;horizontal=0;startSize=0;swimlaneHead=0;swimlaneBody=0;strokeColor=inherit;top=0;left=0;bottom=0;right=0;collapsible=0;dropTarget=0;fillColor=none;points=[[0,0.5],[1,0.5]];portConstraint=eastwest;" vertex="1" parent="OF-9GFd3i1jKcn4MAkDw-16">
          <mxGeometry y="80" width="1070" height="40" as="geometry" />
        </mxCell>
        <mxCell id="OF-9GFd3i1jKcn4MAkDw-32" value="TRANSPORTISTA" style="shape=partialRectangle;html=1;whiteSpace=wrap;connectable=0;strokeColor=inherit;overflow=hidden;fillColor=none;top=0;left=0;bottom=0;right=0;pointerEvents=1;" vertex="1" parent="OF-9GFd3i1jKcn4MAkDw-31">
          <mxGeometry width="210" height="40" as="geometry">
            <mxRectangle width="210" height="40" as="alternateBounds" />
          </mxGeometry>
        </mxCell>
        <mxCell id="OF-9GFd3i1jKcn4MAkDw-33" value="es&amp;nbsp;" style="shape=partialRectangle;html=1;whiteSpace=wrap;connectable=0;strokeColor=inherit;overflow=hidden;fillColor=none;top=0;left=0;bottom=0;right=0;pointerEvents=1;" vertex="1" parent="OF-9GFd3i1jKcn4MAkDw-31">
          <mxGeometry x="210" width="180" height="40" as="geometry">
            <mxRectangle width="180" height="40" as="alternateBounds" />
          </mxGeometry>
        </mxCell>
        <mxCell id="OF-9GFd3i1jKcn4MAkDw-34" value="" style="shape=partialRectangle;html=1;whiteSpace=wrap;connectable=0;strokeColor=inherit;overflow=hidden;fillColor=none;top=0;left=0;bottom=0;right=0;pointerEvents=1;" vertex="1" parent="OF-9GFd3i1jKcn4MAkDw-31">
          <mxGeometry x="390" width="190" height="40" as="geometry">
            <mxRectangle width="190" height="40" as="alternateBounds" />
          </mxGeometry>
        </mxCell>
        <mxCell id="OF-9GFd3i1jKcn4MAkDw-35" value="" style="shape=partialRectangle;html=1;whiteSpace=wrap;connectable=0;strokeColor=inherit;overflow=hidden;fillColor=none;top=0;left=0;bottom=0;right=0;pointerEvents=1;" vertex="1" parent="OF-9GFd3i1jKcn4MAkDw-31">
          <mxGeometry x="580" width="190" height="40" as="geometry">
            <mxRectangle width="190" height="40" as="alternateBounds" />
          </mxGeometry>
        </mxCell>
        <mxCell id="OF-9GFd3i1jKcn4MAkDw-36" value="realiza" style="shape=partialRectangle;html=1;whiteSpace=wrap;connectable=0;strokeColor=inherit;overflow=hidden;fillColor=none;top=0;left=0;bottom=0;right=0;pointerEvents=1;" vertex="1" parent="OF-9GFd3i1jKcn4MAkDw-31">
          <mxGeometry x="770" width="150" height="40" as="geometry">
            <mxRectangle width="150" height="40" as="alternateBounds" />
          </mxGeometry>
        </mxCell>
        <mxCell id="OF-9GFd3i1jKcn4MAkDw-37" value="" style="shape=partialRectangle;html=1;whiteSpace=wrap;connectable=0;strokeColor=inherit;overflow=hidden;fillColor=none;top=0;left=0;bottom=0;right=0;pointerEvents=1;" vertex="1" parent="OF-9GFd3i1jKcn4MAkDw-31">
          <mxGeometry x="920" width="150" height="40" as="geometry">
            <mxRectangle width="150" height="40" as="alternateBounds" />
          </mxGeometry>
        </mxCell>
        <mxCell id="OF-9GFd3i1jKcn4MAkDw-38" value="" style="shape=tableRow;horizontal=0;startSize=0;swimlaneHead=0;swimlaneBody=0;strokeColor=inherit;top=0;left=0;bottom=0;right=0;collapsible=0;dropTarget=0;fillColor=none;points=[[0,0.5],[1,0.5]];portConstraint=eastwest;" vertex="1" parent="OF-9GFd3i1jKcn4MAkDw-16">
          <mxGeometry y="120" width="1070" height="40" as="geometry" />
        </mxCell>
        <mxCell id="OF-9GFd3i1jKcn4MAkDw-39" value="ADMINISTRADOR" style="shape=partialRectangle;html=1;whiteSpace=wrap;connectable=0;strokeColor=inherit;overflow=hidden;fillColor=none;top=0;left=0;bottom=0;right=0;pointerEvents=1;" vertex="1" parent="OF-9GFd3i1jKcn4MAkDw-38">
          <mxGeometry width="210" height="40" as="geometry">
            <mxRectangle width="210" height="40" as="alternateBounds" />
          </mxGeometry>
        </mxCell>
        <mxCell id="OF-9GFd3i1jKcn4MAkDw-40" value="es" style="shape=partialRectangle;html=1;whiteSpace=wrap;connectable=0;strokeColor=inherit;overflow=hidden;fillColor=none;top=0;left=0;bottom=0;right=0;pointerEvents=1;" vertex="1" parent="OF-9GFd3i1jKcn4MAkDw-38">
          <mxGeometry x="210" width="180" height="40" as="geometry">
            <mxRectangle width="180" height="40" as="alternateBounds" />
          </mxGeometry>
        </mxCell>
        <mxCell id="OF-9GFd3i1jKcn4MAkDw-41" value="" style="shape=partialRectangle;html=1;whiteSpace=wrap;connectable=0;strokeColor=inherit;overflow=hidden;fillColor=none;top=0;left=0;bottom=0;right=0;pointerEvents=1;" vertex="1" parent="OF-9GFd3i1jKcn4MAkDw-38">
          <mxGeometry x="390" width="190" height="40" as="geometry">
            <mxRectangle width="190" height="40" as="alternateBounds" />
          </mxGeometry>
        </mxCell>
        <mxCell id="OF-9GFd3i1jKcn4MAkDw-42" value="" style="shape=partialRectangle;html=1;whiteSpace=wrap;connectable=0;strokeColor=inherit;overflow=hidden;fillColor=none;top=0;left=0;bottom=0;right=0;pointerEvents=1;" vertex="1" parent="OF-9GFd3i1jKcn4MAkDw-38">
          <mxGeometry x="580" width="190" height="40" as="geometry">
            <mxRectangle width="190" height="40" as="alternateBounds" />
          </mxGeometry>
        </mxCell>
        <mxCell id="OF-9GFd3i1jKcn4MAkDw-43" value="" style="shape=partialRectangle;html=1;whiteSpace=wrap;connectable=0;strokeColor=inherit;overflow=hidden;fillColor=none;top=0;left=0;bottom=0;right=0;pointerEvents=1;" vertex="1" parent="OF-9GFd3i1jKcn4MAkDw-38">
          <mxGeometry x="770" width="150" height="40" as="geometry">
            <mxRectangle width="150" height="40" as="alternateBounds" />
          </mxGeometry>
        </mxCell>
        <mxCell id="OF-9GFd3i1jKcn4MAkDw-44" value="" style="shape=partialRectangle;html=1;whiteSpace=wrap;connectable=0;strokeColor=inherit;overflow=hidden;fillColor=none;top=0;left=0;bottom=0;right=0;pointerEvents=1;" vertex="1" parent="OF-9GFd3i1jKcn4MAkDw-38">
          <mxGeometry x="920" width="150" height="40" as="geometry">
            <mxRectangle width="150" height="40" as="alternateBounds" />
          </mxGeometry>
        </mxCell>
        <mxCell id="OF-9GFd3i1jKcn4MAkDw-45" value="" style="shape=tableRow;horizontal=0;startSize=0;swimlaneHead=0;swimlaneBody=0;strokeColor=inherit;top=0;left=0;bottom=0;right=0;collapsible=0;dropTarget=0;fillColor=none;points=[[0,0.5],[1,0.5]];portConstraint=eastwest;" vertex="1" parent="OF-9GFd3i1jKcn4MAkDw-16">
          <mxGeometry y="160" width="1070" height="40" as="geometry" />
        </mxCell>
        <mxCell id="OF-9GFd3i1jKcn4MAkDw-46" value="SERVICIO" style="shape=partialRectangle;html=1;whiteSpace=wrap;connectable=0;strokeColor=inherit;overflow=hidden;fillColor=none;top=0;left=0;bottom=0;right=0;pointerEvents=1;" vertex="1" parent="OF-9GFd3i1jKcn4MAkDw-45">
          <mxGeometry width="210" height="40" as="geometry">
            <mxRectangle width="210" height="40" as="alternateBounds" />
          </mxGeometry>
        </mxCell>
        <mxCell id="OF-9GFd3i1jKcn4MAkDw-47" value="" style="shape=partialRectangle;html=1;whiteSpace=wrap;connectable=0;strokeColor=inherit;overflow=hidden;fillColor=none;top=0;left=0;bottom=0;right=0;pointerEvents=1;" vertex="1" parent="OF-9GFd3i1jKcn4MAkDw-45">
          <mxGeometry x="210" width="180" height="40" as="geometry">
            <mxRectangle width="180" height="40" as="alternateBounds" />
          </mxGeometry>
        </mxCell>
        <mxCell id="OF-9GFd3i1jKcn4MAkDw-48" value="es realizado" style="shape=partialRectangle;html=1;whiteSpace=wrap;connectable=0;strokeColor=inherit;overflow=hidden;fillColor=none;top=0;left=0;bottom=0;right=0;pointerEvents=1;" vertex="1" parent="OF-9GFd3i1jKcn4MAkDw-45">
          <mxGeometry x="390" width="190" height="40" as="geometry">
            <mxRectangle width="190" height="40" as="alternateBounds" />
          </mxGeometry>
        </mxCell>
        <mxCell id="OF-9GFd3i1jKcn4MAkDw-49" value="" style="shape=partialRectangle;html=1;whiteSpace=wrap;connectable=0;strokeColor=inherit;overflow=hidden;fillColor=none;top=0;left=0;bottom=0;right=0;pointerEvents=1;" vertex="1" parent="OF-9GFd3i1jKcn4MAkDw-45">
          <mxGeometry x="580" width="190" height="40" as="geometry">
            <mxRectangle width="190" height="40" as="alternateBounds" />
          </mxGeometry>
        </mxCell>
        <mxCell id="OF-9GFd3i1jKcn4MAkDw-50" value="" style="shape=partialRectangle;html=1;whiteSpace=wrap;connectable=0;strokeColor=inherit;overflow=hidden;fillColor=none;top=0;left=0;bottom=0;right=0;pointerEvents=1;" vertex="1" parent="OF-9GFd3i1jKcn4MAkDw-45">
          <mxGeometry x="770" width="150" height="40" as="geometry">
            <mxRectangle width="150" height="40" as="alternateBounds" />
          </mxGeometry>
        </mxCell>
        <mxCell id="OF-9GFd3i1jKcn4MAkDw-51" value="" style="shape=partialRectangle;html=1;whiteSpace=wrap;connectable=0;strokeColor=inherit;overflow=hidden;fillColor=none;top=0;left=0;bottom=0;right=0;pointerEvents=1;" vertex="1" parent="OF-9GFd3i1jKcn4MAkDw-45">
          <mxGeometry x="920" width="150" height="40" as="geometry">
            <mxRectangle width="150" height="40" as="alternateBounds" />
          </mxGeometry>
        </mxCell>
        <mxCell id="OF-9GFd3i1jKcn4MAkDw-52" value="" style="shape=tableRow;horizontal=0;startSize=0;swimlaneHead=0;swimlaneBody=0;strokeColor=inherit;top=0;left=0;bottom=0;right=0;collapsible=0;dropTarget=0;fillColor=none;points=[[0,0.5],[1,0.5]];portConstraint=eastwest;" vertex="1" parent="OF-9GFd3i1jKcn4MAkDw-16">
          <mxGeometry y="200" width="1070" height="40" as="geometry" />
        </mxCell>
        <mxCell id="OF-9GFd3i1jKcn4MAkDw-53" value="VALORACION" style="shape=partialRectangle;html=1;whiteSpace=wrap;connectable=0;strokeColor=inherit;overflow=hidden;fillColor=none;top=0;left=0;bottom=0;right=0;pointerEvents=1;" vertex="1" parent="OF-9GFd3i1jKcn4MAkDw-52">
          <mxGeometry width="210" height="40" as="geometry">
            <mxRectangle width="210" height="40" as="alternateBounds" />
          </mxGeometry>
        </mxCell>
        <mxCell id="OF-9GFd3i1jKcn4MAkDw-54" value="" style="shape=partialRectangle;html=1;whiteSpace=wrap;connectable=0;strokeColor=inherit;overflow=hidden;fillColor=none;top=0;left=0;bottom=0;right=0;pointerEvents=1;" vertex="1" parent="OF-9GFd3i1jKcn4MAkDw-52">
          <mxGeometry x="210" width="180" height="40" as="geometry">
            <mxRectangle width="180" height="40" as="alternateBounds" />
          </mxGeometry>
        </mxCell>
        <mxCell id="OF-9GFd3i1jKcn4MAkDw-55" value="" style="shape=partialRectangle;html=1;whiteSpace=wrap;connectable=0;strokeColor=inherit;overflow=hidden;fillColor=none;top=0;left=0;bottom=0;right=0;pointerEvents=1;" vertex="1" parent="OF-9GFd3i1jKcn4MAkDw-52">
          <mxGeometry x="390" width="190" height="40" as="geometry">
            <mxRectangle width="190" height="40" as="alternateBounds" />
          </mxGeometry>
        </mxCell>
        <mxCell id="OF-9GFd3i1jKcn4MAkDw-56" value="" style="shape=partialRectangle;html=1;whiteSpace=wrap;connectable=0;strokeColor=inherit;overflow=hidden;fillColor=none;top=0;left=0;bottom=0;right=0;pointerEvents=1;" vertex="1" parent="OF-9GFd3i1jKcn4MAkDw-52">
          <mxGeometry x="580" width="190" height="40" as="geometry">
            <mxRectangle width="190" height="40" as="alternateBounds" />
          </mxGeometry>
        </mxCell>
        <mxCell id="OF-9GFd3i1jKcn4MAkDw-57" value="" style="shape=partialRectangle;html=1;whiteSpace=wrap;connectable=0;strokeColor=inherit;overflow=hidden;fillColor=none;top=0;left=0;bottom=0;right=0;pointerEvents=1;" vertex="1" parent="OF-9GFd3i1jKcn4MAkDw-52">
          <mxGeometry x="770" width="150" height="40" as="geometry">
            <mxRectangle width="150" height="40" as="alternateBounds" />
          </mxGeometry>
        </mxCell>
        <mxCell id="OF-9GFd3i1jKcn4MAkDw-58" value="" style="shape=partialRectangle;html=1;whiteSpace=wrap;connectable=0;strokeColor=inherit;overflow=hidden;fillColor=none;top=0;left=0;bottom=0;right=0;pointerEvents=1;" vertex="1" parent="OF-9GFd3i1jKcn4MAkDw-52">
          <mxGeometry x="920" width="150" height="40" as="geometry">
            <mxRectangle width="150" height="40" as="alternateBounds" />
          </mxGeometry>
        </mxCell>
        <mxCell id="OF-9GFd3i1jKcn4MAkDw-59" value="" style="shape=tableRow;horizontal=0;startSize=0;swimlaneHead=0;swimlaneBody=0;strokeColor=inherit;top=0;left=0;bottom=0;right=0;collapsible=0;dropTarget=0;fillColor=none;points=[[0,0.5],[1,0.5]];portConstraint=eastwest;" vertex="1" parent="OF-9GFd3i1jKcn4MAkDw-16">
          <mxGeometry y="240" width="1070" height="40" as="geometry" />
        </mxCell>
        <mxCell id="OF-9GFd3i1jKcn4MAkDw-60" value="CLIENTE" style="shape=partialRectangle;html=1;whiteSpace=wrap;connectable=0;strokeColor=inherit;overflow=hidden;fillColor=none;top=0;left=0;bottom=0;right=0;pointerEvents=1;" vertex="1" parent="OF-9GFd3i1jKcn4MAkDw-59">
          <mxGeometry width="210" height="40" as="geometry">
            <mxRectangle width="210" height="40" as="alternateBounds" />
          </mxGeometry>
        </mxCell>
        <mxCell id="OF-9GFd3i1jKcn4MAkDw-61" value="es" style="shape=partialRectangle;html=1;whiteSpace=wrap;connectable=0;strokeColor=inherit;overflow=hidden;fillColor=none;top=0;left=0;bottom=0;right=0;pointerEvents=1;" vertex="1" parent="OF-9GFd3i1jKcn4MAkDw-59">
          <mxGeometry x="210" width="180" height="40" as="geometry">
            <mxRectangle width="180" height="40" as="alternateBounds" />
          </mxGeometry>
        </mxCell>
        <mxCell id="OF-9GFd3i1jKcn4MAkDw-62" value="" style="shape=partialRectangle;html=1;whiteSpace=wrap;connectable=0;strokeColor=inherit;overflow=hidden;fillColor=none;top=0;left=0;bottom=0;right=0;pointerEvents=1;" vertex="1" parent="OF-9GFd3i1jKcn4MAkDw-59">
          <mxGeometry x="390" width="190" height="40" as="geometry">
            <mxRectangle width="190" height="40" as="alternateBounds" />
          </mxGeometry>
        </mxCell>
        <mxCell id="OF-9GFd3i1jKcn4MAkDw-63" value="" style="shape=partialRectangle;html=1;whiteSpace=wrap;connectable=0;strokeColor=inherit;overflow=hidden;fillColor=none;top=0;left=0;bottom=0;right=0;pointerEvents=1;" vertex="1" parent="OF-9GFd3i1jKcn4MAkDw-59">
          <mxGeometry x="580" width="190" height="40" as="geometry">
            <mxRectangle width="190" height="40" as="alternateBounds" />
          </mxGeometry>
        </mxCell>
        <mxCell id="OF-9GFd3i1jKcn4MAkDw-64" value="solicita" style="shape=partialRectangle;html=1;whiteSpace=wrap;connectable=0;strokeColor=inherit;overflow=hidden;fillColor=none;top=0;left=0;bottom=0;right=0;pointerEvents=1;" vertex="1" parent="OF-9GFd3i1jKcn4MAkDw-59">
          <mxGeometry x="770" width="150" height="40" as="geometry">
            <mxRectangle width="150" height="40" as="alternateBounds" />
          </mxGeometry>
        </mxCell>
        <mxCell id="OF-9GFd3i1jKcn4MAkDw-65" value="valora" style="shape=partialRectangle;html=1;whiteSpace=wrap;connectable=0;strokeColor=inherit;overflow=hidden;fillColor=none;top=0;left=0;bottom=0;right=0;pointerEvents=1;" vertex="1" parent="OF-9GFd3i1jKcn4MAkDw-59">
          <mxGeometry x="920" width="150" height="40" as="geometry">
            <mxRectangle width="150" height="40" as="alternateBounds" />
          </mxGeometry>
        </mxCell>
        <mxCell id="OF-9GFd3i1jKcn4MAkDw-66" value="USUARIO" style="rounded=0;whiteSpace=wrap;html=1;direction=west;" vertex="1" parent="1">
          <mxGeometry x="834.9300000000001" y="880" width="150" height="40" as="geometry" />
        </mxCell>
        <mxCell id="OF-9GFd3i1jKcn4MAkDw-67" value="Apellido" style="ellipse;whiteSpace=wrap;html=1;align=center;" vertex="1" parent="1">
          <mxGeometry x="964.9300000000001" y="1090" width="100" height="30" as="geometry" />
        </mxCell>
        <mxCell id="OF-9GFd3i1jKcn4MAkDw-68" value="" style="endArrow=none;html=1;rounded=0;fontSize=12;startSize=8;endSize=8;entryX=0.5;entryY=0;entryDx=0;entryDy=0;exitX=0;exitY=0.5;exitDx=0;exitDy=0;edgeStyle=orthogonalEdgeStyle;" edge="1" parent="1" source="OF-9GFd3i1jKcn4MAkDw-67" target="OF-9GFd3i1jKcn4MAkDw-66">
          <mxGeometry width="50" height="50" relative="1" as="geometry">
            <mxPoint x="1544.93" y="940" as="sourcePoint" />
            <mxPoint x="2365.5699999999997" y="750.1599999999999" as="targetPoint" />
          </mxGeometry>
        </mxCell>
        <mxCell id="OF-9GFd3i1jKcn4MAkDw-69" value="" style="endArrow=none;html=1;rounded=0;fontSize=12;startSize=8;endSize=8;entryX=0.5;entryY=0;entryDx=0;entryDy=0;exitX=-0.002;exitY=0.626;exitDx=0;exitDy=0;exitPerimeter=0;edgeStyle=orthogonalEdgeStyle;" edge="1" parent="1" source="OF-9GFd3i1jKcn4MAkDw-74" target="OF-9GFd3i1jKcn4MAkDw-66">
          <mxGeometry width="50" height="50" relative="1" as="geometry">
            <mxPoint x="2206.5679310345076" y="850.6772413792955" as="sourcePoint" />
            <mxPoint x="2365.5699999999997" y="750.1599999999999" as="targetPoint" />
          </mxGeometry>
        </mxCell>
        <mxCell id="OF-9GFd3i1jKcn4MAkDw-70" value="" style="endArrow=none;html=1;rounded=0;fontSize=12;startSize=8;endSize=8;entryX=0;entryY=0.5;entryDx=0;entryDy=0;exitX=0.5;exitY=0;exitDx=0;exitDy=0;edgeStyle=orthogonalEdgeStyle;" edge="1" parent="1" source="OF-9GFd3i1jKcn4MAkDw-66" target="OF-9GFd3i1jKcn4MAkDw-77">
          <mxGeometry width="50" height="50" relative="1" as="geometry">
            <mxPoint x="2365.5699999999997" y="750.1599999999999" as="sourcePoint" />
            <mxPoint x="2031.5700000000002" y="810.1599999999999" as="targetPoint" />
          </mxGeometry>
        </mxCell>
        <mxCell id="OF-9GFd3i1jKcn4MAkDw-71" value="Contraseña" style="ellipse;whiteSpace=wrap;html=1;align=center;" vertex="1" parent="1">
          <mxGeometry x="964.9300000000001" y="1170" width="100" height="30" as="geometry" />
        </mxCell>
        <mxCell id="OF-9GFd3i1jKcn4MAkDw-72" value="" style="endArrow=none;html=1;rounded=0;fontSize=12;startSize=8;endSize=8;exitX=0.5;exitY=0;exitDx=0;exitDy=0;edgeStyle=orthogonalEdgeStyle;entryX=0;entryY=0.5;entryDx=0;entryDy=0;" edge="1" parent="1" source="OF-9GFd3i1jKcn4MAkDw-66" target="OF-9GFd3i1jKcn4MAkDw-71">
          <mxGeometry relative="1" as="geometry">
            <mxPoint x="2364.93" y="750" as="sourcePoint" />
            <mxPoint x="964.9300000000001" y="1345" as="targetPoint" />
            <Array as="points">
              <mxPoint x="909.9300000000001" y="1185" />
            </Array>
          </mxGeometry>
        </mxCell>
        <mxCell id="OF-9GFd3i1jKcn4MAkDw-73" value="E-mail" style="ellipse;whiteSpace=wrap;html=1;align=center;" vertex="1" parent="1">
          <mxGeometry x="964.9300000000001" y="1130" width="100" height="30" as="geometry" />
        </mxCell>
        <mxCell id="OF-9GFd3i1jKcn4MAkDw-74" value="Nombre" style="ellipse;whiteSpace=wrap;html=1;align=center;" vertex="1" parent="1">
          <mxGeometry x="964.9300000000001" y="1050" width="100" height="30" as="geometry" />
        </mxCell>
        <mxCell id="OF-9GFd3i1jKcn4MAkDw-75" value="Role" style="ellipse;whiteSpace=wrap;html=1;align=center;" vertex="1" parent="1">
          <mxGeometry x="964.9300000000001" y="1010" width="100" height="30" as="geometry" />
        </mxCell>
        <mxCell id="OF-9GFd3i1jKcn4MAkDw-76" value="" style="endArrow=none;html=1;rounded=0;fontSize=12;startSize=8;endSize=8;exitX=0;exitY=0.5;exitDx=0;exitDy=0;entryX=0.5;entryY=0;entryDx=0;entryDy=0;edgeStyle=orthogonalEdgeStyle;" edge="1" parent="1" source="OF-9GFd3i1jKcn4MAkDw-75" target="OF-9GFd3i1jKcn4MAkDw-66">
          <mxGeometry width="50" height="50" relative="1" as="geometry">
            <mxPoint x="2156.57" y="885.1599999999999" as="sourcePoint" />
            <mxPoint x="2364.93" y="750" as="targetPoint" />
          </mxGeometry>
        </mxCell>
        <mxCell id="OF-9GFd3i1jKcn4MAkDw-77" value="User_id" style="ellipse;whiteSpace=wrap;html=1;align=center;" vertex="1" parent="1">
          <mxGeometry x="964.9300000000001" y="970" width="100" height="30" as="geometry" />
        </mxCell>
        <mxCell id="OF-9GFd3i1jKcn4MAkDw-78" value="Disponinilidad" style="ellipse;whiteSpace=wrap;html=1;align=center;" vertex="1" parent="1">
          <mxGeometry x="1510" y="1130" width="100" height="30" as="geometry" />
        </mxCell>
        <mxCell id="OF-9GFd3i1jKcn4MAkDw-79" value="" style="endArrow=none;html=1;rounded=0;fontSize=12;startSize=8;endSize=8;exitX=0;exitY=0.5;exitDx=0;exitDy=0;edgeStyle=orthogonalEdgeStyle;entryX=1;entryY=0.5;entryDx=0;entryDy=0;" edge="1" parent="1" source="OF-9GFd3i1jKcn4MAkDw-78" target="OF-9GFd3i1jKcn4MAkDw-2">
          <mxGeometry width="50" height="50" relative="1" as="geometry">
            <mxPoint x="1628.73" y="2279.76" as="sourcePoint" />
            <mxPoint x="1390" y="890" as="targetPoint" />
            <Array as="points">
              <mxPoint x="1445" y="1145" />
            </Array>
          </mxGeometry>
        </mxCell>
        <mxCell id="OF-9GFd3i1jKcn4MAkDw-80" value="" style="endArrow=none;html=1;rounded=0;fontSize=12;startSize=8;endSize=8;entryX=0;entryY=0.5;entryDx=0;entryDy=0;exitX=0.5;exitY=0;exitDx=0;exitDy=0;edgeStyle=orthogonalEdgeStyle;" edge="1" parent="1" source="OF-9GFd3i1jKcn4MAkDw-66" target="OF-9GFd3i1jKcn4MAkDw-73">
          <mxGeometry relative="1" as="geometry">
            <mxPoint x="2305.7099999999996" y="830" as="sourcePoint" />
            <mxPoint x="2555.0699999999997" y="939.8400000000001" as="targetPoint" />
          </mxGeometry>
        </mxCell>
        <mxCell id="OF-9GFd3i1jKcn4MAkDw-81" value="ADMINISTRADOR" style="rounded=0;whiteSpace=wrap;html=1;direction=west;" vertex="1" parent="1">
          <mxGeometry x="574.9300000000001" y="1050" width="150" height="40" as="geometry" />
        </mxCell>
        <mxCell id="OF-9GFd3i1jKcn4MAkDw-82" value="" style="endArrow=none;html=1;rounded=0;fontSize=12;startSize=8;endSize=8;entryX=0.5;entryY=0;entryDx=0;entryDy=0;exitX=-0.002;exitY=0.626;exitDx=0;exitDy=0;exitPerimeter=0;edgeStyle=orthogonalEdgeStyle;" edge="1" parent="1" source="OF-9GFd3i1jKcn4MAkDw-84" target="OF-9GFd3i1jKcn4MAkDw-81">
          <mxGeometry width="50" height="50" relative="1" as="geometry">
            <mxPoint x="1946.5679310345076" y="1020.6772413792955" as="sourcePoint" />
            <mxPoint x="2105.5699999999997" y="920.1599999999999" as="targetPoint" />
          </mxGeometry>
        </mxCell>
        <mxCell id="OF-9GFd3i1jKcn4MAkDw-83" value="" style="endArrow=none;html=1;rounded=0;fontSize=12;startSize=8;endSize=8;entryX=0;entryY=0.5;entryDx=0;entryDy=0;exitX=0.5;exitY=0;exitDx=0;exitDy=0;edgeStyle=orthogonalEdgeStyle;" edge="1" parent="1" source="OF-9GFd3i1jKcn4MAkDw-81" target="OF-9GFd3i1jKcn4MAkDw-85">
          <mxGeometry width="50" height="50" relative="1" as="geometry">
            <mxPoint x="2105.5699999999997" y="920.1599999999999" as="sourcePoint" />
            <mxPoint x="1771.5700000000004" y="980.1599999999999" as="targetPoint" />
          </mxGeometry>
        </mxCell>
        <mxCell id="OF-9GFd3i1jKcn4MAkDw-84" value="FK-User_id" style="ellipse;whiteSpace=wrap;html=1;align=center;" vertex="1" parent="1">
          <mxGeometry x="704.9300000000001" y="1180" width="100" height="30" as="geometry" />
        </mxCell>
        <mxCell id="OF-9GFd3i1jKcn4MAkDw-85" value="PK-Admin_id" style="ellipse;whiteSpace=wrap;html=1;align=center;" vertex="1" parent="1">
          <mxGeometry x="704.9300000000001" y="1140" width="100" height="30" as="geometry" />
        </mxCell>
        <mxCell id="OF-9GFd3i1jKcn4MAkDw-86" value="CLIENTE" style="rounded=0;whiteSpace=wrap;html=1;direction=west;" vertex="1" parent="1">
          <mxGeometry x="130" y="880" width="150" height="40" as="geometry" />
        </mxCell>
        <mxCell id="OF-9GFd3i1jKcn4MAkDw-87" value="" style="endArrow=none;html=1;rounded=0;fontSize=12;startSize=8;endSize=8;entryX=0;entryY=0.5;entryDx=0;entryDy=0;exitX=0.5;exitY=0;exitDx=0;exitDy=0;edgeStyle=orthogonalEdgeStyle;" edge="1" parent="1" source="OF-9GFd3i1jKcn4MAkDw-86" target="OF-9GFd3i1jKcn4MAkDw-88">
          <mxGeometry width="50" height="50" relative="1" as="geometry">
            <mxPoint x="1660.6399999999999" y="750.1599999999999" as="sourcePoint" />
            <mxPoint x="1326.64" y="810.1599999999999" as="targetPoint" />
          </mxGeometry>
        </mxCell>
        <mxCell id="OF-9GFd3i1jKcn4MAkDw-88" value="PK-Cliente_id" style="ellipse;whiteSpace=wrap;html=1;align=center;" vertex="1" parent="1">
          <mxGeometry x="260" y="970" width="100" height="30" as="geometry" />
        </mxCell>
        <mxCell id="OF-9GFd3i1jKcn4MAkDw-89" value="Metodo de Pago" style="ellipse;whiteSpace=wrap;html=1;align=center;" vertex="1" parent="1">
          <mxGeometry x="260" y="1080" width="100" height="30" as="geometry" />
        </mxCell>
        <mxCell id="OF-9GFd3i1jKcn4MAkDw-90" value="" style="endArrow=none;html=1;rounded=0;fontSize=12;startSize=8;endSize=8;exitX=0.5;exitY=0;exitDx=0;exitDy=0;edgeStyle=orthogonalEdgeStyle;entryX=0;entryY=0.5;entryDx=0;entryDy=0;" edge="1" parent="1" source="OF-9GFd3i1jKcn4MAkDw-86" target="OF-9GFd3i1jKcn4MAkDw-89">
          <mxGeometry relative="1" as="geometry">
            <mxPoint x="205" y="970" as="sourcePoint" />
            <mxPoint x="260" y="1235" as="targetPoint" />
            <Array as="points">
              <mxPoint x="205" y="1095" />
            </Array>
          </mxGeometry>
        </mxCell>
        <mxCell id="OF-9GFd3i1jKcn4MAkDw-91" value="se registra como" style="shape=rhombus;perimeter=rhombusPerimeter;whiteSpace=wrap;html=1;align=center;" vertex="1" parent="1">
          <mxGeometry x="429.99999999999994" y="870" width="120" height="60" as="geometry" />
        </mxCell>
        <mxCell id="OF-9GFd3i1jKcn4MAkDw-92" value="se registra como" style="shape=rhombus;perimeter=rhombusPerimeter;whiteSpace=wrap;html=1;align=center;" vertex="1" parent="1">
          <mxGeometry x="589.93" y="960" width="120" height="60" as="geometry" />
        </mxCell>
        <mxCell id="OF-9GFd3i1jKcn4MAkDw-93" value="se registra como" style="shape=rhombus;perimeter=rhombusPerimeter;whiteSpace=wrap;html=1;align=center;" vertex="1" parent="1">
          <mxGeometry x="1124.93" y="870" width="120" height="60" as="geometry" />
        </mxCell>
        <mxCell id="OF-9GFd3i1jKcn4MAkDw-94" value="valora" style="shape=rhombus;perimeter=rhombusPerimeter;whiteSpace=wrap;html=1;align=center;" vertex="1" parent="1">
          <mxGeometry x="272.53000000000003" y="1760" width="120" height="60" as="geometry" />
        </mxCell>
        <mxCell id="OF-9GFd3i1jKcn4MAkDw-95" value="" style="edgeStyle=orthogonalEdgeStyle;fontSize=12;html=1;endArrow=ERzeroToMany;startArrow=ERzeroToOne;rounded=0;exitX=1;exitY=0.5;exitDx=0;exitDy=0;entryX=1;entryY=0.5;entryDx=0;entryDy=0;" edge="1" parent="1" source="OF-9GFd3i1jKcn4MAkDw-66" target="OF-9GFd3i1jKcn4MAkDw-91">
          <mxGeometry width="100" height="100" relative="1" as="geometry">
            <mxPoint x="880" y="1400" as="sourcePoint" />
            <mxPoint x="980" y="1300" as="targetPoint" />
          </mxGeometry>
        </mxCell>
        <mxCell id="OF-9GFd3i1jKcn4MAkDw-96" value="" style="edgeStyle=orthogonalEdgeStyle;fontSize=12;html=1;endArrow=ERzeroToMany;startArrow=ERzeroToOne;rounded=0;exitX=0;exitY=0.5;exitDx=0;exitDy=0;entryX=0;entryY=0.5;entryDx=0;entryDy=0;" edge="1" parent="1" source="OF-9GFd3i1jKcn4MAkDw-66" target="OF-9GFd3i1jKcn4MAkDw-93">
          <mxGeometry width="100" height="100" relative="1" as="geometry">
            <mxPoint x="1699.9299999999998" y="930" as="sourcePoint" />
            <mxPoint x="1100" y="1230" as="targetPoint" />
          </mxGeometry>
        </mxCell>
        <mxCell id="OF-9GFd3i1jKcn4MAkDw-97" value="" style="endArrow=none;html=1;rounded=0;entryX=0.5;entryY=0;entryDx=0;entryDy=0;exitX=0.75;exitY=0;exitDx=0;exitDy=0;edgeStyle=orthogonalEdgeStyle;" edge="1" parent="1" source="OF-9GFd3i1jKcn4MAkDw-66" target="OF-9GFd3i1jKcn4MAkDw-92">
          <mxGeometry relative="1" as="geometry">
            <mxPoint x="920" y="1230" as="sourcePoint" />
            <mxPoint x="1080" y="1230" as="targetPoint" />
          </mxGeometry>
        </mxCell>
        <mxCell id="OF-9GFd3i1jKcn4MAkDw-98" value="1" style="resizable=0;html=1;whiteSpace=wrap;align=right;verticalAlign=bottom;" connectable="0" vertex="1" parent="OF-9GFd3i1jKcn4MAkDw-97">
          <mxGeometry x="1" relative="1" as="geometry" />
        </mxCell>
        <mxCell id="OF-9GFd3i1jKcn4MAkDw-99" value="" style="endArrow=none;html=1;rounded=0;exitX=0;exitY=0.5;exitDx=0;exitDy=0;entryX=0;entryY=0.5;entryDx=0;entryDy=0;" edge="1" parent="1" source="OF-9GFd3i1jKcn4MAkDw-91" target="OF-9GFd3i1jKcn4MAkDw-86">
          <mxGeometry relative="1" as="geometry">
            <mxPoint x="910" y="1210" as="sourcePoint" />
            <mxPoint x="1070" y="1210" as="targetPoint" />
          </mxGeometry>
        </mxCell>
        <mxCell id="OF-9GFd3i1jKcn4MAkDw-100" value="" style="endArrow=none;html=1;rounded=0;exitX=0.5;exitY=1;exitDx=0;exitDy=0;entryX=0.5;entryY=1;entryDx=0;entryDy=0;" edge="1" parent="1" source="OF-9GFd3i1jKcn4MAkDw-92" target="OF-9GFd3i1jKcn4MAkDw-81">
          <mxGeometry relative="1" as="geometry">
            <mxPoint x="650" y="1190" as="sourcePoint" />
            <mxPoint x="650" y="1410" as="targetPoint" />
          </mxGeometry>
        </mxCell>
        <mxCell id="OF-9GFd3i1jKcn4MAkDw-101" value="" style="endArrow=none;html=1;rounded=0;entryX=0.5;entryY=1;entryDx=0;entryDy=0;exitX=1;exitY=0.5;exitDx=0;exitDy=0;" edge="1" parent="1" source="OF-9GFd3i1jKcn4MAkDw-93" target="OF-9GFd3i1jKcn4MAkDw-2">
          <mxGeometry relative="1" as="geometry">
            <mxPoint x="1250" y="1020" as="sourcePoint" />
            <mxPoint x="1410" y="1020" as="targetPoint" />
          </mxGeometry>
        </mxCell>
        <mxCell id="OF-9GFd3i1jKcn4MAkDw-102" value="VALORACIONES" style="whiteSpace=wrap;html=1;align=center;" vertex="1" parent="1">
          <mxGeometry x="762.3899999999999" y="1770" width="120" height="40" as="geometry" />
        </mxCell>
        <mxCell id="OF-9GFd3i1jKcn4MAkDw-103" value="Servicio_id" style="ellipse;whiteSpace=wrap;html=1;align=center;" vertex="1" parent="1">
          <mxGeometry x="562.4599999999999" y="1860" width="100.07" height="30" as="geometry" />
        </mxCell>
        <mxCell id="OF-9GFd3i1jKcn4MAkDw-104" value="Cliente_id" style="ellipse;whiteSpace=wrap;html=1;align=center;" vertex="1" parent="1">
          <mxGeometry x="682.53" y="1860" width="100" height="30" as="geometry" />
        </mxCell>
        <mxCell id="OF-9GFd3i1jKcn4MAkDw-105" value="Valoracion" style="ellipse;whiteSpace=wrap;html=1;align=center;" vertex="1" parent="1">
          <mxGeometry x="962.39" y="1860" width="100.14" height="30" as="geometry" />
        </mxCell>
        <mxCell id="OF-9GFd3i1jKcn4MAkDw-106" value="Transportista_id" style="ellipse;whiteSpace=wrap;html=1;align=center;" vertex="1" parent="1">
          <mxGeometry x="812.53" y="1860" width="100" height="30" as="geometry" />
        </mxCell>
        <mxCell id="OF-9GFd3i1jKcn4MAkDw-107" value="SERVICIO" style="whiteSpace=wrap;html=1;align=center;" vertex="1" parent="1">
          <mxGeometry x="750" y="1410" width="120" height="40" as="geometry" />
        </mxCell>
        <mxCell id="OF-9GFd3i1jKcn4MAkDw-108" value="solicita" style="shape=rhombus;perimeter=rhombusPerimeter;whiteSpace=wrap;html=1;align=center;" vertex="1" parent="1">
          <mxGeometry x="370" y="1400" width="120" height="60" as="geometry" />
        </mxCell>
        <mxCell id="OF-9GFd3i1jKcn4MAkDw-109" value="" style="edgeStyle=entityRelationEdgeStyle;fontSize=12;html=1;endArrow=ERmandOne;startArrow=ERmandOne;rounded=0;startSize=8;endSize=8;curved=1;exitX=0.984;exitY=0.502;exitDx=0;exitDy=0;entryX=0;entryY=0.5;entryDx=0;entryDy=0;exitPerimeter=0;" edge="1" parent="1" source="OF-9GFd3i1jKcn4MAkDw-108" target="OF-9GFd3i1jKcn4MAkDw-107">
          <mxGeometry width="100" height="100" relative="1" as="geometry">
            <mxPoint x="495" y="1430" as="sourcePoint" />
            <mxPoint x="685" y="1460" as="targetPoint" />
          </mxGeometry>
        </mxCell>
        <mxCell id="OF-9GFd3i1jKcn4MAkDw-110" value="" style="edgeStyle=orthogonalEdgeStyle;fontSize=12;html=1;endArrow=ERmandOne;startArrow=ERmandOne;rounded=0;startSize=8;endSize=8;exitX=0.99;exitY=0.498;exitDx=0;exitDy=0;exitPerimeter=0;entryX=1;entryY=0.75;entryDx=0;entryDy=0;" edge="1" parent="1" source="OF-9GFd3i1jKcn4MAkDw-112" target="OF-9GFd3i1jKcn4MAkDw-2">
          <mxGeometry width="100" height="100" relative="1" as="geometry">
            <mxPoint x="1480" y="1535" as="sourcePoint" />
            <mxPoint x="1240" y="1510" as="targetPoint" />
          </mxGeometry>
        </mxCell>
        <mxCell id="OF-9GFd3i1jKcn4MAkDw-111" value="" style="edgeStyle=entityRelationEdgeStyle;fontSize=12;html=1;endArrow=ERmandOne;startArrow=ERmandOne;rounded=0;startSize=8;endSize=8;curved=1;exitX=1;exitY=0.5;exitDx=0;exitDy=0;entryX=0;entryY=0.5;entryDx=0;entryDy=0;" edge="1" parent="1" source="OF-9GFd3i1jKcn4MAkDw-107" target="OF-9GFd3i1jKcn4MAkDw-112">
          <mxGeometry width="100" height="100" relative="1" as="geometry">
            <mxPoint x="890" y="1430" as="sourcePoint" />
            <mxPoint x="1240" y="1430" as="targetPoint" />
          </mxGeometry>
        </mxCell>
        <mxCell id="OF-9GFd3i1jKcn4MAkDw-112" value="es realizado" style="shape=rhombus;perimeter=rhombusPerimeter;whiteSpace=wrap;html=1;align=center;" vertex="1" parent="1">
          <mxGeometry x="1064.93" y="1400" width="120" height="60" as="geometry" />
        </mxCell>
        <mxCell id="OF-9GFd3i1jKcn4MAkDw-113" value="" style="edgeStyle=orthogonalEdgeStyle;fontSize=12;html=1;endArrow=ERoneToMany;rounded=0;startSize=8;endSize=8;exitX=0.595;exitY=0.004;exitDx=0;exitDy=0;entryX=0;entryY=0.5;entryDx=0;entryDy=0;exitPerimeter=0;" edge="1" parent="1" source="OF-9GFd3i1jKcn4MAkDw-86" target="OF-9GFd3i1jKcn4MAkDw-108">
          <mxGeometry width="100" height="100" relative="1" as="geometry">
            <mxPoint x="270" y="1360" as="sourcePoint" />
            <mxPoint x="325" y="1360" as="targetPoint" />
            <Array as="points">
              <mxPoint x="191" y="1430" />
            </Array>
          </mxGeometry>
        </mxCell>
        <mxCell id="OF-9GFd3i1jKcn4MAkDw-114" value="Servicio_id" style="ellipse;whiteSpace=wrap;html=1;align=center;" vertex="1" parent="1">
          <mxGeometry x="450" y="1570" width="100" height="30" as="geometry" />
        </mxCell>
        <mxCell id="OF-9GFd3i1jKcn4MAkDw-115" value="Cliente_id" style="ellipse;whiteSpace=wrap;html=1;align=center;" vertex="1" parent="1">
          <mxGeometry x="529.93" y="1610" width="100" height="30" as="geometry" />
        </mxCell>
        <mxCell id="OF-9GFd3i1jKcn4MAkDw-116" value="Direccion de recogida" style="ellipse;whiteSpace=wrap;html=1;align=center;" vertex="1" parent="1">
          <mxGeometry x="760" y="1570" width="100" height="30" as="geometry" />
        </mxCell>
        <mxCell id="OF-9GFd3i1jKcn4MAkDw-117" value="Direccion de entrega" style="ellipse;whiteSpace=wrap;html=1;align=center;" vertex="1" parent="1">
          <mxGeometry x="820" y="1610" width="100" height="30" as="geometry" />
        </mxCell>
        <mxCell id="OF-9GFd3i1jKcn4MAkDw-118" value="Pasajeros" style="ellipse;whiteSpace=wrap;html=1;align=center;" vertex="1" parent="1">
          <mxGeometry x="969.86" y="1610" width="100.14" height="30" as="geometry" />
        </mxCell>
        <mxCell id="OF-9GFd3i1jKcn4MAkDw-119" value="Extras" style="ellipse;whiteSpace=wrap;html=1;align=center;" vertex="1" parent="1">
          <mxGeometry x="1129.93" y="1610" width="100.07" height="30" as="geometry" />
        </mxCell>
        <mxCell id="OF-9GFd3i1jKcn4MAkDw-120" value="Precio servicio" style="ellipse;whiteSpace=wrap;html=1;align=center;" vertex="1" parent="1">
          <mxGeometry x="690" y="1610" width="100" height="30" as="geometry" />
        </mxCell>
        <mxCell id="OF-9GFd3i1jKcn4MAkDw-121" value="Transportista_id" style="ellipse;whiteSpace=wrap;html=1;align=center;" vertex="1" parent="1">
          <mxGeometry x="609.93" y="1569" width="100" height="30" as="geometry" />
        </mxCell>
        <mxCell id="OF-9GFd3i1jKcn4MAkDw-122" value="Fecha" style="ellipse;whiteSpace=wrap;html=1;align=center;" vertex="1" parent="1">
          <mxGeometry x="889.86" y="1570" width="100.14" height="30" as="geometry" />
        </mxCell>
        <mxCell id="OF-9GFd3i1jKcn4MAkDw-123" value="Estado del Servicio" style="ellipse;whiteSpace=wrap;html=1;align=center;" vertex="1" parent="1">
          <mxGeometry x="1049.93" y="1570" width="100.07" height="30" as="geometry" />
        </mxCell>
        <mxCell id="OF-9GFd3i1jKcn4MAkDw-124" value="" style="endArrow=none;html=1;rounded=0;exitX=0.5;exitY=0;exitDx=0;exitDy=0;entryX=0.5;entryY=1;entryDx=0;entryDy=0;edgeStyle=orthogonalEdgeStyle;" edge="1" parent="1" source="OF-9GFd3i1jKcn4MAkDw-114" target="OF-9GFd3i1jKcn4MAkDw-107">
          <mxGeometry relative="1" as="geometry">
            <mxPoint x="600" y="1480" as="sourcePoint" />
            <mxPoint x="760" y="1480" as="targetPoint" />
          </mxGeometry>
        </mxCell>
        <mxCell id="OF-9GFd3i1jKcn4MAkDw-125" value="" style="endArrow=none;html=1;rounded=0;exitX=0.5;exitY=0;exitDx=0;exitDy=0;entryX=0.5;entryY=1;entryDx=0;entryDy=0;edgeStyle=orthogonalEdgeStyle;" edge="1" parent="1" source="OF-9GFd3i1jKcn4MAkDw-115" target="OF-9GFd3i1jKcn4MAkDw-107">
          <mxGeometry relative="1" as="geometry">
            <mxPoint x="600" y="1480" as="sourcePoint" />
            <mxPoint x="760" y="1480" as="targetPoint" />
            <Array as="points">
              <mxPoint x="580" y="1510" />
              <mxPoint x="810" y="1510" />
            </Array>
          </mxGeometry>
        </mxCell>
        <mxCell id="OF-9GFd3i1jKcn4MAkDw-126" value="" style="endArrow=none;html=1;rounded=0;exitX=0.5;exitY=0;exitDx=0;exitDy=0;entryX=0.5;entryY=1;entryDx=0;entryDy=0;edgeStyle=orthogonalEdgeStyle;" edge="1" parent="1" source="OF-9GFd3i1jKcn4MAkDw-121" target="OF-9GFd3i1jKcn4MAkDw-107">
          <mxGeometry relative="1" as="geometry">
            <mxPoint x="600" y="1480" as="sourcePoint" />
            <mxPoint x="760" y="1480" as="targetPoint" />
            <Array as="points">
              <mxPoint x="660" y="1510" />
              <mxPoint x="810" y="1510" />
            </Array>
          </mxGeometry>
        </mxCell>
        <mxCell id="OF-9GFd3i1jKcn4MAkDw-127" value="" style="endArrow=none;html=1;rounded=0;exitX=0.5;exitY=0;exitDx=0;exitDy=0;entryX=0.5;entryY=1;entryDx=0;entryDy=0;edgeStyle=orthogonalEdgeStyle;" edge="1" parent="1" source="OF-9GFd3i1jKcn4MAkDw-120" target="OF-9GFd3i1jKcn4MAkDw-107">
          <mxGeometry relative="1" as="geometry">
            <mxPoint x="590" y="1520" as="sourcePoint" />
            <mxPoint x="750" y="1520" as="targetPoint" />
            <Array as="points">
              <mxPoint x="740" y="1510" />
              <mxPoint x="810" y="1510" />
            </Array>
          </mxGeometry>
        </mxCell>
        <mxCell id="OF-9GFd3i1jKcn4MAkDw-128" value="" style="endArrow=none;html=1;rounded=0;exitX=0.5;exitY=0;exitDx=0;exitDy=0;entryX=0.5;entryY=1;entryDx=0;entryDy=0;" edge="1" parent="1" source="OF-9GFd3i1jKcn4MAkDw-116" target="OF-9GFd3i1jKcn4MAkDw-107">
          <mxGeometry relative="1" as="geometry">
            <mxPoint x="740" y="1520" as="sourcePoint" />
            <mxPoint x="900" y="1520" as="targetPoint" />
          </mxGeometry>
        </mxCell>
        <mxCell id="OF-9GFd3i1jKcn4MAkDw-129" value="" style="endArrow=none;html=1;rounded=0;entryX=0.5;entryY=0;entryDx=0;entryDy=0;exitX=0.5;exitY=1;exitDx=0;exitDy=0;edgeStyle=orthogonalEdgeStyle;" edge="1" parent="1" source="OF-9GFd3i1jKcn4MAkDw-107" target="OF-9GFd3i1jKcn4MAkDw-117">
          <mxGeometry relative="1" as="geometry">
            <mxPoint x="740" y="1520" as="sourcePoint" />
            <mxPoint x="900" y="1520" as="targetPoint" />
            <Array as="points">
              <mxPoint x="810" y="1510" />
              <mxPoint x="870" y="1510" />
            </Array>
          </mxGeometry>
        </mxCell>
        <mxCell id="OF-9GFd3i1jKcn4MAkDw-130" value="" style="endArrow=none;html=1;rounded=0;entryX=0.5;entryY=0;entryDx=0;entryDy=0;exitX=0.5;exitY=1;exitDx=0;exitDy=0;edgeStyle=orthogonalEdgeStyle;" edge="1" parent="1" source="OF-9GFd3i1jKcn4MAkDw-107" target="OF-9GFd3i1jKcn4MAkDw-122">
          <mxGeometry relative="1" as="geometry">
            <mxPoint x="740" y="1520" as="sourcePoint" />
            <mxPoint x="900" y="1520" as="targetPoint" />
          </mxGeometry>
        </mxCell>
        <mxCell id="OF-9GFd3i1jKcn4MAkDw-131" value="" style="endArrow=none;html=1;rounded=0;exitX=0.5;exitY=1;exitDx=0;exitDy=0;entryX=0.5;entryY=0;entryDx=0;entryDy=0;edgeStyle=orthogonalEdgeStyle;" edge="1" parent="1" source="OF-9GFd3i1jKcn4MAkDw-107" target="OF-9GFd3i1jKcn4MAkDw-118">
          <mxGeometry relative="1" as="geometry">
            <mxPoint x="880" y="1520" as="sourcePoint" />
            <mxPoint x="1040" y="1520" as="targetPoint" />
            <Array as="points">
              <mxPoint x="810" y="1510" />
              <mxPoint x="1020" y="1510" />
            </Array>
          </mxGeometry>
        </mxCell>
        <mxCell id="OF-9GFd3i1jKcn4MAkDw-132" value="" style="endArrow=none;html=1;rounded=0;entryX=0.5;entryY=0;entryDx=0;entryDy=0;exitX=0.5;exitY=1;exitDx=0;exitDy=0;edgeStyle=orthogonalEdgeStyle;" edge="1" parent="1" source="OF-9GFd3i1jKcn4MAkDw-107" target="OF-9GFd3i1jKcn4MAkDw-123">
          <mxGeometry relative="1" as="geometry">
            <mxPoint x="880" y="1520" as="sourcePoint" />
            <mxPoint x="1040" y="1520" as="targetPoint" />
          </mxGeometry>
        </mxCell>
        <mxCell id="OF-9GFd3i1jKcn4MAkDw-133" value="" style="endArrow=none;html=1;rounded=0;exitX=0.5;exitY=1;exitDx=0;exitDy=0;entryX=0.5;entryY=0;entryDx=0;entryDy=0;edgeStyle=orthogonalEdgeStyle;" edge="1" parent="1" source="OF-9GFd3i1jKcn4MAkDw-107" target="OF-9GFd3i1jKcn4MAkDw-119">
          <mxGeometry relative="1" as="geometry">
            <mxPoint x="830" y="1460" as="sourcePoint" />
            <mxPoint x="1070" y="1520" as="targetPoint" />
            <Array as="points">
              <mxPoint x="810" y="1510" />
              <mxPoint x="1180" y="1510" />
            </Array>
          </mxGeometry>
        </mxCell>
        <mxCell id="OF-9GFd3i1jKcn4MAkDw-134" value="" style="endArrow=none;html=1;rounded=0;exitX=0.5;exitY=0;exitDx=0;exitDy=0;entryX=0.5;entryY=1;entryDx=0;entryDy=0;edgeStyle=orthogonalEdgeStyle;" edge="1" parent="1" source="OF-9GFd3i1jKcn4MAkDw-103" target="OF-9GFd3i1jKcn4MAkDw-102">
          <mxGeometry relative="1" as="geometry">
            <mxPoint x="712.53" y="1760" as="sourcePoint" />
            <mxPoint x="872.53" y="1760" as="targetPoint" />
          </mxGeometry>
        </mxCell>
        <mxCell id="OF-9GFd3i1jKcn4MAkDw-135" value="" style="endArrow=none;html=1;rounded=0;exitX=0.5;exitY=0;exitDx=0;exitDy=0;entryX=0.5;entryY=1;entryDx=0;entryDy=0;edgeStyle=orthogonalEdgeStyle;" edge="1" parent="1" source="OF-9GFd3i1jKcn4MAkDw-104" target="OF-9GFd3i1jKcn4MAkDw-102">
          <mxGeometry relative="1" as="geometry">
            <mxPoint x="712.53" y="1760" as="sourcePoint" />
            <mxPoint x="872.53" y="1760" as="targetPoint" />
          </mxGeometry>
        </mxCell>
        <mxCell id="OF-9GFd3i1jKcn4MAkDw-136" value="" style="endArrow=none;html=1;rounded=0;entryX=0.5;entryY=0;entryDx=0;entryDy=0;exitX=0.5;exitY=1;exitDx=0;exitDy=0;edgeStyle=orthogonalEdgeStyle;" edge="1" parent="1" source="OF-9GFd3i1jKcn4MAkDw-102" target="OF-9GFd3i1jKcn4MAkDw-106">
          <mxGeometry relative="1" as="geometry">
            <mxPoint x="752.53" y="1780" as="sourcePoint" />
            <mxPoint x="912.53" y="1780" as="targetPoint" />
          </mxGeometry>
        </mxCell>
        <mxCell id="OF-9GFd3i1jKcn4MAkDw-137" value="" style="endArrow=none;html=1;rounded=0;entryX=0.5;entryY=0;entryDx=0;entryDy=0;exitX=0.5;exitY=1;exitDx=0;exitDy=0;edgeStyle=orthogonalEdgeStyle;" edge="1" parent="1" source="OF-9GFd3i1jKcn4MAkDw-102" target="OF-9GFd3i1jKcn4MAkDw-105">
          <mxGeometry relative="1" as="geometry">
            <mxPoint x="752.53" y="1780" as="sourcePoint" />
            <mxPoint x="912.53" y="1780" as="targetPoint" />
          </mxGeometry>
        </mxCell>
        <mxCell id="OF-9GFd3i1jKcn4MAkDw-138" value="recibe" style="shape=rhombus;perimeter=rhombusPerimeter;whiteSpace=wrap;html=1;align=center;" vertex="1" parent="1">
          <mxGeometry x="1227.46" y="1760" width="120" height="60" as="geometry" />
        </mxCell>
        <mxCell id="OF-9GFd3i1jKcn4MAkDw-139" value="" style="endArrow=none;html=1;rounded=0;exitX=0.75;exitY=0;exitDx=0;exitDy=0;entryX=0;entryY=0.5;entryDx=0;entryDy=0;edgeStyle=orthogonalEdgeStyle;" edge="1" parent="1" source="OF-9GFd3i1jKcn4MAkDw-86" target="OF-9GFd3i1jKcn4MAkDw-94">
          <mxGeometry relative="1" as="geometry">
            <mxPoint x="170" y="1150" as="sourcePoint" />
            <mxPoint x="720" y="1640" as="targetPoint" />
          </mxGeometry>
        </mxCell>
        <mxCell id="OF-9GFd3i1jKcn4MAkDw-140" value="" style="endArrow=none;html=1;rounded=0;entryX=0;entryY=0.5;entryDx=0;entryDy=0;exitX=1;exitY=0.5;exitDx=0;exitDy=0;" edge="1" parent="1" source="OF-9GFd3i1jKcn4MAkDw-102" target="OF-9GFd3i1jKcn4MAkDw-138">
          <mxGeometry relative="1" as="geometry">
            <mxPoint x="882.39" y="1789.29" as="sourcePoint" />
            <mxPoint x="1042.3899999999999" y="1789.29" as="targetPoint" />
          </mxGeometry>
        </mxCell>
        <mxCell id="OF-9GFd3i1jKcn4MAkDw-141" value="" style="endArrow=none;html=1;rounded=0;exitX=1;exitY=0.5;exitDx=0;exitDy=0;entryX=0;entryY=0.5;entryDx=0;entryDy=0;" edge="1" parent="1" source="OF-9GFd3i1jKcn4MAkDw-94" target="OF-9GFd3i1jKcn4MAkDw-102">
          <mxGeometry relative="1" as="geometry">
            <mxPoint x="532.53" y="1710" as="sourcePoint" />
            <mxPoint x="692.53" y="1710" as="targetPoint" />
          </mxGeometry>
        </mxCell>
        <mxCell id="OF-9GFd3i1jKcn4MAkDw-142" value="" style="endArrow=none;html=1;rounded=0;exitX=1;exitY=0.5;exitDx=0;exitDy=0;entryX=1;entryY=0.6;entryDx=0;entryDy=0;entryPerimeter=0;edgeStyle=orthogonalEdgeStyle;" edge="1" parent="1" source="OF-9GFd3i1jKcn4MAkDw-138" target="OF-9GFd3i1jKcn4MAkDw-2">
          <mxGeometry relative="1" as="geometry">
            <mxPoint x="1410" y="1850" as="sourcePoint" />
            <mxPoint x="1570" y="1850" as="targetPoint" />
          </mxGeometry>
        </mxCell>
        <mxCell id="OF-9GFd3i1jKcn4MAkDw-143" value="" style="shape=table;startSize=0;container=1;collapsible=0;childLayout=tableLayout;" vertex="1" parent="1">
          <mxGeometry x="1370" y="450" width="120" height="280" as="geometry" />
        </mxCell>
        <mxCell id="OF-9GFd3i1jKcn4MAkDw-144" value="" style="shape=tableRow;horizontal=0;startSize=0;swimlaneHead=0;swimlaneBody=0;strokeColor=inherit;top=0;left=0;bottom=0;right=0;collapsible=0;dropTarget=0;fillColor=none;points=[[0,0.5],[1,0.5]];portConstraint=eastwest;" vertex="1" parent="OF-9GFd3i1jKcn4MAkDw-143">
          <mxGeometry width="120" height="40" as="geometry" />
        </mxCell>
        <mxCell id="OF-9GFd3i1jKcn4MAkDw-145" value="CLIENTE" style="shape=partialRectangle;html=1;whiteSpace=wrap;connectable=0;strokeColor=inherit;overflow=hidden;fillColor=none;top=0;left=0;bottom=0;right=0;pointerEvents=1;" vertex="1" parent="OF-9GFd3i1jKcn4MAkDw-144">
          <mxGeometry width="120" height="40" as="geometry">
            <mxRectangle width="120" height="40" as="alternateBounds" />
          </mxGeometry>
        </mxCell>
        <mxCell id="OF-9GFd3i1jKcn4MAkDw-146" value="" style="shape=tableRow;horizontal=0;startSize=0;swimlaneHead=0;swimlaneBody=0;strokeColor=inherit;top=0;left=0;bottom=0;right=0;collapsible=0;dropTarget=0;fillColor=none;points=[[0,0.5],[1,0.5]];portConstraint=eastwest;" vertex="1" parent="OF-9GFd3i1jKcn4MAkDw-143">
          <mxGeometry y="40" width="120" height="40" as="geometry" />
        </mxCell>
        <mxCell id="OF-9GFd3i1jKcn4MAkDw-147" value="" style="shape=partialRectangle;html=1;whiteSpace=wrap;connectable=0;strokeColor=inherit;overflow=hidden;fillColor=none;top=0;left=0;bottom=0;right=0;pointerEvents=1;" vertex="1" parent="OF-9GFd3i1jKcn4MAkDw-146">
          <mxGeometry width="120" height="40" as="geometry">
            <mxRectangle width="120" height="40" as="alternateBounds" />
          </mxGeometry>
        </mxCell>
        <mxCell id="OF-9GFd3i1jKcn4MAkDw-148" value="" style="shape=tableRow;horizontal=0;startSize=0;swimlaneHead=0;swimlaneBody=0;strokeColor=inherit;top=0;left=0;bottom=0;right=0;collapsible=0;dropTarget=0;fillColor=none;points=[[0,0.5],[1,0.5]];portConstraint=eastwest;" vertex="1" parent="OF-9GFd3i1jKcn4MAkDw-143">
          <mxGeometry y="80" width="120" height="40" as="geometry" />
        </mxCell>
        <mxCell id="OF-9GFd3i1jKcn4MAkDw-149" value="" style="shape=partialRectangle;html=1;whiteSpace=wrap;connectable=0;strokeColor=inherit;overflow=hidden;fillColor=none;top=0;left=0;bottom=0;right=0;pointerEvents=1;" vertex="1" parent="OF-9GFd3i1jKcn4MAkDw-148">
          <mxGeometry width="120" height="40" as="geometry">
            <mxRectangle width="120" height="40" as="alternateBounds" />
          </mxGeometry>
        </mxCell>
        <mxCell id="OF-9GFd3i1jKcn4MAkDw-150" value="" style="shape=tableRow;horizontal=0;startSize=0;swimlaneHead=0;swimlaneBody=0;strokeColor=inherit;top=0;left=0;bottom=0;right=0;collapsible=0;dropTarget=0;fillColor=none;points=[[0,0.5],[1,0.5]];portConstraint=eastwest;" vertex="1" parent="OF-9GFd3i1jKcn4MAkDw-143">
          <mxGeometry y="120" width="120" height="40" as="geometry" />
        </mxCell>
        <mxCell id="OF-9GFd3i1jKcn4MAkDw-151" value="" style="shape=partialRectangle;html=1;whiteSpace=wrap;connectable=0;strokeColor=inherit;overflow=hidden;fillColor=none;top=0;left=0;bottom=0;right=0;pointerEvents=1;" vertex="1" parent="OF-9GFd3i1jKcn4MAkDw-150">
          <mxGeometry width="120" height="40" as="geometry">
            <mxRectangle width="120" height="40" as="alternateBounds" />
          </mxGeometry>
        </mxCell>
        <mxCell id="OF-9GFd3i1jKcn4MAkDw-152" value="" style="shape=tableRow;horizontal=0;startSize=0;swimlaneHead=0;swimlaneBody=0;strokeColor=inherit;top=0;left=0;bottom=0;right=0;collapsible=0;dropTarget=0;fillColor=none;points=[[0,0.5],[1,0.5]];portConstraint=eastwest;" vertex="1" parent="OF-9GFd3i1jKcn4MAkDw-143">
          <mxGeometry y="160" width="120" height="40" as="geometry" />
        </mxCell>
        <mxCell id="OF-9GFd3i1jKcn4MAkDw-153" value="" style="shape=partialRectangle;html=1;whiteSpace=wrap;connectable=0;strokeColor=inherit;overflow=hidden;fillColor=none;top=0;left=0;bottom=0;right=0;pointerEvents=1;" vertex="1" parent="OF-9GFd3i1jKcn4MAkDw-152">
          <mxGeometry width="120" height="40" as="geometry">
            <mxRectangle width="120" height="40" as="alternateBounds" />
          </mxGeometry>
        </mxCell>
        <mxCell id="OF-9GFd3i1jKcn4MAkDw-154" value="" style="shape=tableRow;horizontal=0;startSize=0;swimlaneHead=0;swimlaneBody=0;strokeColor=inherit;top=0;left=0;bottom=0;right=0;collapsible=0;dropTarget=0;fillColor=none;points=[[0,0.5],[1,0.5]];portConstraint=eastwest;" vertex="1" parent="OF-9GFd3i1jKcn4MAkDw-143">
          <mxGeometry y="200" width="120" height="40" as="geometry" />
        </mxCell>
        <mxCell id="OF-9GFd3i1jKcn4MAkDw-155" value="" style="shape=partialRectangle;html=1;whiteSpace=wrap;connectable=0;strokeColor=inherit;overflow=hidden;fillColor=none;top=0;left=0;bottom=0;right=0;pointerEvents=1;" vertex="1" parent="OF-9GFd3i1jKcn4MAkDw-154">
          <mxGeometry width="120" height="40" as="geometry">
            <mxRectangle width="120" height="40" as="alternateBounds" />
          </mxGeometry>
        </mxCell>
        <mxCell id="OF-9GFd3i1jKcn4MAkDw-156" value="" style="shape=tableRow;horizontal=0;startSize=0;swimlaneHead=0;swimlaneBody=0;strokeColor=inherit;top=0;left=0;bottom=0;right=0;collapsible=0;dropTarget=0;fillColor=none;points=[[0,0.5],[1,0.5]];portConstraint=eastwest;" vertex="1" parent="OF-9GFd3i1jKcn4MAkDw-143">
          <mxGeometry y="240" width="120" height="40" as="geometry" />
        </mxCell>
        <mxCell id="OF-9GFd3i1jKcn4MAkDw-157" value="" style="shape=partialRectangle;html=1;whiteSpace=wrap;connectable=0;strokeColor=inherit;overflow=hidden;fillColor=none;top=0;left=0;bottom=0;right=0;pointerEvents=1;" vertex="1" parent="OF-9GFd3i1jKcn4MAkDw-156">
          <mxGeometry width="120" height="40" as="geometry">
            <mxRectangle width="120" height="40" as="alternateBounds" />
          </mxGeometry>
        </mxCell>
        <mxCell id="OF-9GFd3i1jKcn4MAkDw-158" value="FK-User_id" style="ellipse;whiteSpace=wrap;html=1;align=center;" vertex="1" parent="1">
          <mxGeometry x="260" y="1030" width="100" height="30" as="geometry" />
        </mxCell>
        <mxCell id="OF-9GFd3i1jKcn4MAkDw-159" value="" style="endArrow=none;html=1;rounded=0;exitX=0.5;exitY=0;exitDx=0;exitDy=0;entryX=0;entryY=0.5;entryDx=0;entryDy=0;edgeStyle=orthogonalEdgeStyle;" edge="1" parent="1" source="OF-9GFd3i1jKcn4MAkDw-86" target="OF-9GFd3i1jKcn4MAkDw-158">
          <mxGeometry relative="1" as="geometry">
            <mxPoint x="370" y="1180" as="sourcePoint" />
            <mxPoint x="530" y="1180" as="targetPoint" />
          </mxGeometry>
        </mxCell>
      </root>
    </mxGraphModel>
  </diagram>
</mxfile>
